<?xml version="1.0" encoding="utf-8"?>
<svg viewBox="0 0 80 80" xmlns="http://www.w3.org/2000/svg" xmlns:xlink="http://www.w3.org/1999/xlink" xmlns:bx="https://boxy-svg.com">
  <defs>
    <bx:grid x="0" y="0" width="79.957" height="80.042"/>
    <linearGradient id="sun" bx:pinned="true">
      <stop offset="0" style="stop-color: rgb(74, 74, 74);"/>
      <stop offset="0.995" style="stop-color: rgb(114, 112, 121);"/>
    </linearGradient>
    <radialGradient id="sun-0" gradientUnits="userSpaceOnUse" cx="19.829" cy="28.279" r="43.986" gradientTransform="matrix(0.817086, 0.967334, -0.763942, 0.645285, 18.669835, -25.818466)" xlink:href="#sun"/>
    <linearGradient id="halo" bx:pinned="true">
      <stop offset="0.694" style="stop-color: rgb(179, 202, 238);"/>
      <stop offset="0.939" style="stop-color: rgba(0, 0, 0, 0);"/>
    </linearGradient>
    <radialGradient id="gradient-0-0" gradientUnits="userSpaceOnUse" cx="28.632" cy="34.504" r="55.706" gradientTransform="matrix(1.184734, 0, 0, 1.184734, -13.288855, -21.246363)" xlink:href="#halo"/>
  </defs>
  <ellipse style="paint-order: stroke; fill-rule: nonzero; fill: url(#gradient-0-0);" cx="20.633" cy="19.631" rx="65.997" ry="65.997"/>
  <ellipse style="paint-order: stroke; fill-rule: nonzero; fill: url(#sun-0);" cx="21.469" cy="20.274" rx="43.986" ry="43.986"/>
  <ellipse style="fill: rgb(72, 67, 99);" cx="37.137" cy="23.448" rx="1.47" ry="1.47"/>
  <ellipse style="fill: rgb(72, 67, 99);" cx="4.413" cy="10.064" rx="1.47" ry="1.47"/>
  <ellipse style="fill: rgb(72, 67, 99);" cx="10.138" cy="34.665" rx="1.006" ry="1.006"/>
  <ellipse style="fill: rgb(72, 67, 99);" cx="19.266" cy="36.367" rx="1.47" ry="1.47"/>
  <ellipse style="fill: rgb(72, 67, 99);" cx="13.503" cy="-9.625" rx="0.812" ry="0.812"/>
  <ellipse style="fill: rgb(72, 67, 99);" cx="38.761" cy="-5.873" rx="1.315" ry="1.315"/>
  <ellipse style="fill: rgb(72, 67, 99);" cx="23.908" cy="11.921" rx="1.47" ry="1.47"/>
  <ellipse style="fill: rgb(72, 67, 99);" cx="52.184" cy="11.65" rx="1.199" ry="1.199"/>
  <ellipse style="fill: rgb(72, 67, 99);" cx="50.675" cy="35.129" rx="2.708" ry="2.708"/>
  <ellipse style="fill: rgb(72, 67, 99);" cx="31.567" cy="52.845" rx="1.702" ry="1.702"/>
  <ellipse style="fill: rgb(72, 67, 99);" cx="10.292" cy="48.126" rx="1.16" ry="1.16"/>
  <ellipse style="fill: rgb(72, 67, 99);" cx="-17.674" cy="24.801" rx="0.735" ry="0.735"/>
  <ellipse style="fill: rgb(72, 67, 99);" cx="-0.539" cy="28.167" rx="1.47" ry="1.47"/>
  <ellipse style="fill: rgb(72, 67, 99);" cx="-4.445" cy="42.44" rx="1.973" ry="1.973"/>
  <ellipse style="fill: rgb(72, 67, 99);" cx="-7.966" cy="18.729" rx="1.47" ry="1.47"/>
  <ellipse style="fill: rgb(72, 67, 99);" cx="-2.163" cy="-0.071" rx="0.309" ry="0.309"/>
  <ellipse style="fill: rgb(72, 67, 99);" cx="1.627" cy="-11.133" rx="1.47" ry="1.47"/>
  <ellipse style="fill: rgb(72, 67, 99);" cx="19.73" cy="-1.386" rx="1.934" ry="1.934"/>
  <ellipse style="fill: rgb(72, 67, 99);" cx="38.916" cy="9.6" rx="1.47" ry="1.47"/>
  <ellipse style="fill: rgb(72, 67, 99);" cx="21.432" cy="18.574" rx="1.006" ry="1.006"/>
  <ellipse style="fill: rgb(72, 67, 99);" cx="22.515" cy="32.808" rx="0.851" ry="0.851"/>
  <ellipse style="fill: rgb(72, 67, 99);" cx="35.976" cy="39.771" rx="0.696" ry="0.696"/>
  <ellipse style="fill: rgb(72, 67, 99);" cx="22.051" cy="55.862" rx="1.315" ry="1.315"/>
  <ellipse style="fill: rgb(72, 67, 99);" cx="57.019" cy="21.668" rx="1.47" ry="1.47"/>
</svg>